<svg xmlns="http://www.w3.org/2000/svg" width="121" height="121" viewBox="0 0 121 121">
    <defs>
        <linearGradient id="ejro4me2la" x1="50%" x2="50%" y1="0%" y2="100%">
            <stop offset="0%" stop-color="#9B00FA"/>
            <stop offset="100%" stop-color="#FE0065"/>
        </linearGradient>
        <linearGradient id="c4d7kunmdb" x1="50%" x2="50%" y1="0%" y2="100%">
            <stop offset="0%" stop-color="#9700FF"/>
            <stop offset="100%" stop-color="#FF0063"/>
        </linearGradient>
    </defs>
    <g fill="none" fill-rule="evenodd">
        <g>
            <g transform="translate(-300 -328) translate(301 329)">
                <circle cx="59.67" cy="59.67" r="59.67" stroke="url(#ejro4me2la)" stroke-width="1.203"/>
                <circle cx="59.94" cy="59.4" r="55.62" fill="url(#c4d7kunmdb)"/>
                <path fill="#FFF" d="M30.451 86.72l.086.085c.325.36.292.918-.063 1.238l-3.923 3.532c-.33.297-.821.299-1.152.018l-.086-.084c-.325-.36-.292-.919.064-1.239l3.922-3.531c.33-.297.821-.3 1.152-.018zm60.67.019l3.922 3.531c.33.297.384.786.139 1.144l-.075.095c-.324.36-.883.386-1.238.066l-3.922-3.532c-.33-.297-.384-.785-.139-1.144l.075-.094c.324-.36.883-.386 1.238-.066zM22.195 72.302l.04.103c.15.461-.107.958-.561 1.105l-5.02 1.632c-.425.138-.878-.064-1.064-.461l-.04-.103c-.15-.461.107-.958.562-1.106l5.02-1.63c.424-.139.877.063 1.063.46zm77.094-.46l5.02 1.63c.424.138.672.568.59.998l-.028.108c-.15.46-.65.711-1.105.564l-5.02-1.632c-.424-.138-.672-.567-.59-.998l.028-.107c.15-.461.65-.712 1.105-.564zm7.604-16.817l.019.11c.05.481-.304.914-.78.964l-5.25.551c-.443.047-.845-.245-.944-.672l-.018-.109c-.05-.482.304-.914.78-.964l5.249-.552c.444-.047.845.245.944.672zm-92.422-.672l5.25.552c.444.046.776.415.784.853l-.005.111c-.05.482-.487.831-.963.781l-5.249-.551c-.444-.047-.776-.416-.784-.854l.004-.11c.051-.483.488-.832.963-.782zm86.345-17.905l.062.092c.242.42.094.96-.32 1.199l-4.571 2.639c-.387.223-.872.12-1.137-.23l-.06-.092c-.243-.42-.095-.96.32-1.199l4.57-2.639c.387-.223.872-.12 1.136.23zm-80.076-.23l4.571 2.64c.387.223.54.695.37 1.098l-.05.1c-.242.42-.784.56-1.198.322l-4.57-2.64c-.387-.223-.54-.695-.37-1.098l.05-.1c.242-.42.783-.56 1.197-.322zm66.97-14.27l.102.063c.392.285.476.838.195 1.225l-3.103 4.27c-.26.36-.74.463-1.123.257l-.102-.064c-.392-.285-.476-.838-.195-1.224l3.103-4.27c.26-.36.74-.464 1.123-.257zm-53.877.256l3.103 4.27c.26.36.211.848-.103 1.148l-.092.077c-.392.285-.944.194-1.225-.193l-3.103-4.27c-.26-.359-.211-.848.103-1.148l.092-.077c.392-.284.944-.193 1.225.193zm36.03-8.16l.11.016c.474.1.776.571.677 1.04l-1.098 5.162c-.093.437-.494.728-.93.69l-.11-.016c-.474-.1-.776-.571-.677-1.04l1.098-5.162c.093-.437.494-.728.93-.69zm-18.376.69l1.098 5.163c.093.437-.155.866-.57 1.01l-.107.03c-.474.1-.94-.208-1.04-.675l-1.098-5.163c-.092-.437.156-.866.57-1.01l.107-.03c.474-.1.941.208 1.04.675z"/>
                <path fill="#FFF" d="M44.673 40.086c.745 0 1.35.607 1.35 1.352v7.612c.962.492 1.62 1.492 1.62 2.646s-.658 2.154-1.62 2.646v43.792c0 .702-.531 1.28-1.22 1.346l-.13.006c-.746 0-1.35-.607-1.35-1.352V54.342c-.962-.491-1.62-1.492-1.62-2.646s.658-2.155 1.62-2.646v-7.612c0-.703.53-1.28 1.219-1.346l.13-.006zm0 10.26c-.746 0-1.35.604-1.35 1.35 0 .745.604 1.35 1.35 1.35.745 0 1.35-.605 1.35-1.35 0-.746-.605-1.35-1.35-1.35z" transform="rotate(56 44.673 69.786)"/>
            </g>
        </g>
    </g>
</svg>
