<svg xmlns="http://www.w3.org/2000/svg" width="145" height="145" viewBox="0 0 145 145">
    <g fill="none" fill-rule="evenodd">
        <g>
            <g>
                <path d="M0 0H145V145H0z" transform="translate(-288 -778) translate(288 778)"/>
                <path fill="#000" fill-rule="nonzero" stroke="#000" d="M6.304 6.304h6.305v6.305H6.304V6.304zm6.305 0h6.304v6.305h-6.304V6.304zm6.304 0h6.304v6.305h-6.304V6.304zm6.304 0h6.305v6.305h-6.305V6.304zm6.305 0h6.304v6.305h-6.304V6.304zm6.304 0h6.304v6.305h-6.304V6.304zm6.304 0h6.305v6.305H44.13V6.304zm12.61 0h6.303v6.305H56.74V6.304zm6.303 0h6.305v6.305h-6.305V6.304zm6.305 0h6.304v6.305h-6.304V6.304zm25.217 0h6.305v6.305h-6.305V6.304zm6.305 0h6.304v6.305h-6.304V6.304zm6.304 0h6.304v6.305h-6.304V6.304zm6.304 0h6.305v6.305h-6.305V6.304zm6.305 0h6.304v6.305h-6.304V6.304zm6.304 0h6.304v6.305h-6.304V6.304zm6.304 0h6.305v6.305h-6.305V6.304zM6.304 12.61h6.305v6.304H6.304v-6.304zm37.826 0h6.305v6.304H44.13v-6.304zm12.61 0h6.303v6.304H56.74v-6.304zm6.303 0h6.305v6.304h-6.305v-6.304zm18.914 0h6.304v6.304h-6.304v-6.304zm12.608 0h6.305v6.304h-6.305v-6.304zm37.826 0h6.305v6.304h-6.305v-6.304zM6.304 18.913h6.305v6.304H6.304v-6.304zm12.609 0h6.304v6.304h-6.304v-6.304zm6.304 0h6.305v6.304h-6.305v-6.304zm6.305 0h6.304v6.304h-6.304v-6.304zm12.608 0h6.305v6.304H44.13v-6.304zm12.61 0h6.303v6.304H56.74v-6.304zm6.303 0h6.305v6.304h-6.305v-6.304zm6.305 0h6.304v6.304h-6.304v-6.304zm6.304 0h6.305v6.304h-6.305v-6.304zm18.913 0h6.305v6.304h-6.305v-6.304zm12.609 0h6.304v6.304h-6.304v-6.304zm6.304 0h6.305v6.304h-6.305v-6.304zm6.305 0h6.304v6.304h-6.304v-6.304zm12.608 0h6.305v6.304h-6.305v-6.304zM6.304 25.217h6.305v6.305H6.304v-6.305zm12.609 0h6.304v6.305h-6.304v-6.305zm6.304 0h6.305v6.305h-6.305v-6.305zm6.305 0h6.304v6.305h-6.304v-6.305zm12.608 0h6.305v6.305H44.13v-6.305zm12.61 0h6.303v6.305H56.74v-6.305zm37.825 0h6.305v6.305h-6.305v-6.305zm12.609 0h6.304v6.305h-6.304v-6.305zm6.304 0h6.305v6.305h-6.305v-6.305zm6.305 0h6.304v6.305h-6.304v-6.305zm12.608 0h6.305v6.305h-6.305v-6.305zM6.304 31.522h6.305v6.304H6.304v-6.304zm12.609 0h6.304v6.304h-6.304v-6.304zm6.304 0h6.305v6.304h-6.305v-6.304zm6.305 0h6.304v6.304h-6.304v-6.304zm12.608 0h6.305v6.304H44.13v-6.304zm12.61 0h6.303v6.304H56.74v-6.304zm6.303 0h6.305v6.304h-6.305v-6.304zm31.522 0h6.305v6.304h-6.305v-6.304zm12.609 0h6.304v6.304h-6.304v-6.304zm6.304 0h6.305v6.304h-6.305v-6.304zm6.305 0h6.304v6.304h-6.304v-6.304zm12.608 0h6.305v6.304h-6.305v-6.304zM6.304 37.826h6.305v6.304H6.304v-6.304zm37.826 0h6.305v6.304H44.13v-6.304zm18.913 0h6.305v6.304h-6.305v-6.304zm6.305 0h6.304v6.304h-6.304v-6.304zm6.304 0h6.305v6.304h-6.305v-6.304zm18.913 0h6.305v6.304h-6.305v-6.304zm37.826 0h6.305v6.304h-6.305v-6.304zM6.304 44.13h6.305v6.305H6.304V44.13zm6.305 0h6.304v6.305h-6.304V44.13zm6.304 0h6.304v6.305h-6.304V44.13zm6.304 0h6.305v6.305h-6.305V44.13zm6.305 0h6.304v6.305h-6.304V44.13zm6.304 0h6.304v6.305h-6.304V44.13zm6.304 0h6.305v6.305H44.13V44.13zm12.61 0h6.303v6.305H56.74V44.13zm12.608 0h6.304v6.305h-6.304V44.13zm12.609 0h6.304v6.305h-6.304V44.13zm12.608 0h6.305v6.305h-6.305V44.13zm6.305 0h6.304v6.305h-6.304V44.13zm6.304 0h6.304v6.305h-6.304V44.13zm6.304 0h6.305v6.305h-6.305V44.13zm6.305 0h6.304v6.305h-6.304V44.13zm6.304 0h6.304v6.305h-6.304V44.13zm6.304 0h6.305v6.305h-6.305V44.13zM56.74 50.435h6.304v6.304H56.74v-6.304zm25.218 0h6.304v6.304h-6.304v-6.304zm-69.348 6.304h6.304v6.304h-6.304V56.74zm6.304 0h6.304v6.304h-6.304V56.74zm12.609 0h6.304v6.304h-6.304V56.74zm12.608 0h6.305v6.304H44.13V56.74zm6.305 0h6.304v6.304h-6.304V56.74zm18.913 0h6.304v6.304h-6.304V56.74zm25.217 0h6.305v6.304h-6.305V56.74zm12.609 0h6.304v6.304h-6.304V56.74zm6.304 0h6.305v6.304h-6.305V56.74zm6.305 0h6.304v6.304h-6.304V56.74zm6.304 0h6.304v6.304h-6.304V56.74zm6.304 0h6.305v6.304h-6.305V56.74zM56.74 63.043h6.304v6.305H56.74v-6.305zm12.609 0h6.304v6.305h-6.304v-6.305zm6.304 0h6.305v6.305h-6.305v-6.305zm6.305 0h6.304v6.305h-6.304v-6.305zm25.217 0h6.304v6.305h-6.304v-6.305zm6.304 0h6.305v6.305h-6.305v-6.305zm12.609 0h6.304v6.305h-6.304v-6.305zm6.304 0h6.305v6.305h-6.305v-6.305zM6.304 69.348h6.305v6.304H6.304v-6.304zm6.305 0h6.304v6.304h-6.304v-6.304zm12.608 0h6.305v6.304h-6.305v-6.304zm18.913 0h6.305v6.304H44.13v-6.304zm12.61 0h6.303v6.304H56.74v-6.304zm31.52 0h6.305v6.304h-6.304v-6.304zm6.305 0h6.305v6.304h-6.305v-6.304zm6.305 0h6.304v6.304h-6.304v-6.304zm6.304 0h6.304v6.304h-6.304v-6.304zm6.304 0h6.305v6.304h-6.305v-6.304zm6.305 0h6.304v6.304h-6.304v-6.304zm6.304 0h6.304v6.304h-6.304v-6.304zm6.304 0h6.305v6.304h-6.305v-6.304zM6.304 75.652h6.305v6.305H6.304v-6.305zm18.913 0h6.305v6.305h-6.305v-6.305zm12.61 0h6.303v6.305h-6.304v-6.305zm18.912 0h6.304v6.305H56.74v-6.305zm6.304 0h6.305v6.305h-6.305v-6.305zm12.61 0h6.304v6.305h-6.305v-6.305zm6.304 0h6.304v6.305h-6.304v-6.305zm6.304 0h6.304v6.305h-6.304v-6.305zm12.609 0h6.304v6.305h-6.304v-6.305zm6.304 0h6.304v6.305h-6.304v-6.305zm18.913 0h6.304v6.305h-6.304v-6.305zm6.304 0h6.305v6.305h-6.305v-6.305zM6.304 81.957h6.305v6.304H6.304v-6.304zm6.305 0h6.304v6.304h-6.304v-6.304zm6.304 0h6.304v6.304h-6.304v-6.304zm6.304 0h6.305v6.304h-6.305v-6.304zm12.61 0h6.303v6.304h-6.304v-6.304zm6.303 0h6.305v6.304H44.13v-6.304zm6.305 0h6.304v6.304h-6.304v-6.304zm6.304 0h6.304v6.304H56.74v-6.304zm12.609 0h6.304v6.304h-6.304v-6.304zm6.304 0h6.305v6.304h-6.305v-6.304zm18.913 0h6.305v6.304h-6.305v-6.304zm12.609 0h6.304v6.304h-6.304v-6.304zm18.913 0h6.304v6.304h-6.304v-6.304zM56.739 88.26h6.304v6.304H56.74v-6.304zm12.609 0h6.304v6.304h-6.304v-6.304zm12.609 0h6.304v6.304h-6.304v-6.304zm12.608 0h6.305v6.304h-6.305v-6.304zm12.609 0h6.304v6.304h-6.304v-6.304zm12.609 0h6.304v6.304h-6.304v-6.304zm6.304 0h6.304v6.304h-6.304v-6.304zm6.304 0h6.305v6.304h-6.305v-6.304zM6.304 94.565h6.305v6.305H6.304v-6.305zm6.305 0h6.304v6.305h-6.304v-6.305zm6.304 0h6.304v6.305h-6.304v-6.305zm6.304 0h6.305v6.305h-6.305v-6.305zm6.305 0h6.304v6.305h-6.304v-6.305zm6.304 0h6.304v6.305h-6.304v-6.305zm6.304 0h6.305v6.305H44.13v-6.305zm12.61 0h6.303v6.305H56.74v-6.305zm12.608 0h6.304v6.305h-6.304v-6.305zm31.522 0h6.304v6.305h-6.304v-6.305zm6.304 0h6.304v6.305h-6.304v-6.305zm12.609 0h6.304v6.305h-6.304v-6.305zm6.304 0h6.304v6.305h-6.304v-6.305zm6.304 0h6.305v6.305h-6.305v-6.305zM6.304 100.87h6.305v6.304H6.304v-6.304zm37.826 0h6.305v6.304H44.13v-6.304zm18.913 0h6.305v6.304h-6.305v-6.304zm18.914 0h6.304v6.304h-6.304v-6.304zm12.608 0h6.305v6.304h-6.305v-6.304zm6.305 0h6.304v6.304h-6.304v-6.304zm6.304 0h6.304v6.304h-6.304v-6.304zm18.913 0h6.304v6.304h-6.304v-6.304zM6.304 107.174h6.305v6.304H6.304v-6.304zm12.609 0h6.304v6.304h-6.304v-6.304zm6.304 0h6.305v6.304h-6.305v-6.304zm6.305 0h6.304v6.304h-6.304v-6.304zm12.608 0h6.305v6.304H44.13v-6.304zm12.61 0h6.303v6.304H56.74v-6.304zm6.303 0h6.305v6.304h-6.305v-6.304zm12.61 0h6.304v6.304h-6.305v-6.304zm6.304 0h6.304v6.304h-6.304v-6.304zm12.608 0h6.305v6.304h-6.305v-6.304zm6.305 0h6.304v6.304h-6.304v-6.304zm-94.566 6.304h6.305v6.305H6.304v-6.305zm12.609 0h6.304v6.305h-6.304v-6.305zm6.304 0h6.305v6.305h-6.305v-6.305zm6.305 0h6.304v6.305h-6.304v-6.305zm12.608 0h6.305v6.305H44.13v-6.305zm25.218 0h6.304v6.305h-6.304v-6.305zm6.304 0h6.305v6.305h-6.305v-6.305zm12.609 0h6.304v6.305h-6.304v-6.305zm12.609 0h6.304v6.305h-6.304v-6.305zm6.304 0h6.304v6.305h-6.304v-6.305zm12.609 0h6.304v6.305h-6.304v-6.305zm6.304 0h6.304v6.305h-6.304v-6.305zM6.304 119.783h6.305v6.304H6.304v-6.304zm12.609 0h6.304v6.304h-6.304v-6.304zm6.304 0h6.305v6.304h-6.305v-6.304zm6.305 0h6.304v6.304h-6.304v-6.304zm12.608 0h6.305v6.304H44.13v-6.304zm12.61 0h6.303v6.304H56.74v-6.304zm18.912 0h6.305v6.304h-6.305v-6.304zm12.609 0h6.304v6.304h-6.304v-6.304zm6.304 0h6.305v6.304h-6.305v-6.304zm12.609 0h6.304v6.304h-6.304v-6.304zm6.304 0h6.305v6.304h-6.305v-6.304zm18.913 0h6.305v6.304h-6.305v-6.304zM6.304 126.087h6.305v6.304H6.304v-6.304zm37.826 0h6.305v6.304H44.13v-6.304zm12.61 0h6.303v6.304H56.74v-6.304zm6.303 0h6.305v6.304h-6.305v-6.304zm6.305 0h6.304v6.304h-6.304v-6.304zm6.304 0h6.305v6.304h-6.305v-6.304zm6.305 0h6.304v6.304h-6.304v-6.304zm6.304 0h6.304v6.304h-6.304v-6.304zm18.913 0h6.304v6.304h-6.304v-6.304zm18.913 0h6.304v6.304h-6.304v-6.304zM6.304 132.391h6.305v6.305H6.304v-6.305zm6.305 0h6.304v6.305h-6.304v-6.305zm6.304 0h6.304v6.305h-6.304v-6.305zm6.304 0h6.305v6.305h-6.305v-6.305zm6.305 0h6.304v6.305h-6.304v-6.305zm6.304 0h6.304v6.305h-6.304v-6.305zm6.304 0h6.305v6.305H44.13v-6.305zm31.522 0h6.305v6.305h-6.305v-6.305zm12.609 0h6.304v6.305h-6.304v-6.305zm6.304 0h6.305v6.305h-6.305v-6.305zm6.305 0h6.304v6.305h-6.304v-6.305zm6.304 0h6.304v6.305h-6.304v-6.305zm18.913 0h6.304v6.305h-6.304v-6.305zm6.304 0h6.305v6.305h-6.305v-6.305z" transform="translate(-288 -778) translate(288 778)"/>
            </g>
        </g>
    </g>
</svg>
