<svg xmlns="http://www.w3.org/2000/svg" width="230" height="230" viewBox="0 0 230 230">
    <g fill="none" fill-rule="evenodd">
        <g>
            <g>
                <path d="M0 0H230V230H0z" transform="translate(-246 -1421) translate(246 1421)"/>
                <path fill="#000" fill-rule="nonzero" stroke="#000" d="M10 10h10v10H10V10zm10 0h10v10H20V10zm10 0h10v10H30V10zm10 0h10v10H40V10zm10 0h10v10H50V10zm10 0h10v10H60V10zm10 0h10v10H70V10zm20 0h10v10H90V10zm20 0h10v10h-10V10zm40 0h10v10h-10V10zm10 0h10v10h-10V10zm10 0h10v10h-10V10zm10 0h10v10h-10V10zm10 0h10v10h-10V10zm10 0h10v10h-10V10zm10 0h10v10h-10V10zM10 20h10v10H10V20zm60 0h10v10H70V20zm30 0h10v10h-10V20zm10 0h10v10h-10V20zm40 0h10v10h-10V20zm60 0h10v10h-10V20zM10 30h10v10H10V30zm20 0h10v10H30V30zm10 0h10v10H40V30zm10 0h10v10H50V30zm20 0h10v10H70V30zm20 0h10v10H90V30zm20 0h10v10h-10V30zm40 0h10v10h-10V30zm20 0h10v10h-10V30zm10 0h10v10h-10V30zm10 0h10v10h-10V30zm20 0h10v10h-10V30zM10 40h10v10H10V40zm20 0h10v10H30V40zm10 0h10v10H40V40zm10 0h10v10H50V40zm20 0h10v10H70V40zm20 0h10v10H90V40zm10 0h10v10h-10V40zm50 0h10v10h-10V40zm20 0h10v10h-10V40zm10 0h10v10h-10V40zm10 0h10v10h-10V40zm20 0h10v10h-10V40zM10 50h10v10H10V50zm20 0h10v10H30V50zm10 0h10v10H40V50zm10 0h10v10H50V50zm20 0h10v10H70V50zm40 0h10v10h-10V50zm40 0h10v10h-10V50zm20 0h10v10h-10V50zm10 0h10v10h-10V50zm10 0h10v10h-10V50zm20 0h10v10h-10V50zM10 60h10v10H10V60zm60 0h10v10H70V60zm20 0h10v10H90V60zm30 0h10v10h-10V60zm10 0h10v10h-10V60zm20 0h10v10h-10V60zm60 0h10v10h-10V60zM10 70h10v10H10V70zm10 0h10v10H20V70zm10 0h10v10H30V70zm10 0h10v10H40V70zm10 0h10v10H50V70zm10 0h10v10H60V70zm10 0h10v10H70V70zm20 0h10v10H90V70zm20 0h10v10h-10V70zm20 0h10v10h-10V70zm20 0h10v10h-10V70zm10 0h10v10h-10V70zm10 0h10v10h-10V70zm10 0h10v10h-10V70zm10 0h10v10h-10V70zm10 0h10v10h-10V70zm10 0h10v10h-10V70zM90 80h10v10H90V80zm30 0h10v10h-10V80zm10 0h10v10h-10V80zM20 90h10v10H20V90zm20 0h10v10H40V90zm20 0h10v10H60V90zm10 0h10v10H70V90zm10 0h10v10H80V90zm10 0h10v10H90V90zm30 0h10v10h-10V90zm10 0h10v10h-10V90zm10 0h10v10h-10V90zm10 0h10v10h-10V90zm10 0h10v10h-10V90zm20 0h10v10h-10V90zm10 0h10v10h-10V90zm20 0h10v10h-10V90zM10 100h10v10H10v-10zm20 0h10v10H30v-10zm10 0h10v10H40v-10zm10 0h10v10H50v-10zm10 0h10v10H60v-10zm30 0h10v10H90v-10zm10 0h10v10h-10v-10zm10 0h10v10h-10v-10zm40 0h10v10h-10v-10zm10 0h10v10h-10v-10zm10 0h10v10h-10v-10zm20 0h10v10h-10v-10zm10 0h10v10h-10v-10zm10 0h10v10h-10v-10zM10 110h10v10H10v-10zm60 0h10v10H70v-10zm20 0h10v10H90v-10zm20 0h10v10h-10v-10zm30 0h10v10h-10v-10zm40 0h10v10h-10v-10zm30 0h10v10h-10v-10zM20 120h10v10H20v-10zm20 0h10v10H40v-10zm80 0h10v10h-10v-10zm30 0h10v10h-10v-10zm10 0h10v10h-10v-10zm20 0h10v10h-10v-10zm20 0h10v10h-10v-10zm10 0h10v10h-10v-10zM20 130h10v10H20v-10zm30 0h10v10H50v-10zm20 0h10v10H70v-10zm10 0h10v10H80v-10zm10 0h10v10H90v-10zm10 0h10v10h-10v-10zm10 0h10v10h-10v-10zm20 0h10v10h-10v-10zm10 0h10v10h-10v-10zm20 0h10v10h-10v-10zm10 0h10v10h-10v-10zm-80 10h10v10H90v-10zm10 0h10v10h-10v-10zm20 0h10v10h-10v-10zm10 0h10v10h-10v-10zm30 0h10v10h-10v-10zm30 0h10v10h-10v-10zm20 0h10v10h-10v-10zM10 150h10v10H10v-10zm10 0h10v10H20v-10zm10 0h10v10H30v-10zm10 0h10v10H40v-10zm10 0h10v10H50v-10zm10 0h10v10H60v-10zm10 0h10v10H70v-10zm20 0h10v10H90v-10zm30 0h10v10h-10v-10zm30 0h10v10h-10v-10zm10 0h10v10h-10v-10zm10 0h10v10h-10v-10zm10 0h10v10h-10v-10zm10 0h10v10h-10v-10zm10 0h10v10h-10v-10zM10 160h10v10H10v-10zm60 0h10v10H70v-10zm20 0h10v10H90v-10zm20 0h10v10h-10v-10zm10 0h10v10h-10v-10zm10 0h10v10h-10v-10zm70 0h10v10h-10v-10zm10 0h10v10h-10v-10zM10 170h10v10H10v-10zm20 0h10v10H30v-10zm10 0h10v10H40v-10zm10 0h10v10H50v-10zm20 0h10v10H70v-10zm30 0h10v10h-10v-10zm20 0h10v10h-10v-10zm40 0h10v10h-10v-10zm20 0h10v10h-10v-10zm20 0h10v10h-10v-10zM10 180h10v10H10v-10zm20 0h10v10H30v-10zm10 0h10v10H40v-10zm10 0h10v10H50v-10zm20 0h10v10H70v-10zm20 0h10v10H90v-10zm10 0h10v10h-10v-10zm50 0h10v10h-10v-10zm10 0h10v10h-10v-10zm10 0h10v10h-10v-10zm20 0h10v10h-10v-10zm10 0h10v10h-10v-10zm10 0h10v10h-10v-10zM10 190h10v10H10v-10zm20 0h10v10H30v-10zm10 0h10v10H40v-10zm10 0h10v10H50v-10zm20 0h10v10H70v-10zm30 0h10v10h-10v-10zm20 0h10v10h-10v-10zm20 0h10v10h-10v-10zm10 0h10v10h-10v-10zm10 0h10v10h-10v-10zm10 0h10v10h-10v-10zm10 0h10v10h-10v-10zm10 0h10v10h-10v-10zm20 0h10v10h-10v-10zM10 200h10v10H10v-10zm60 0h10v10H70v-10zm20 0h10v10H90v-10zm20 0h10v10h-10v-10zm10 0h10v10h-10v-10zm10 0h10v10h-10v-10zm30 0h10v10h-10v-10zM10 210h10v10H10v-10zm10 0h10v10H20v-10zm10 0h10v10H30v-10zm10 0h10v10H40v-10zm10 0h10v10H50v-10zm10 0h10v10H60v-10zm10 0h10v10H70v-10zm30 0h10v10h-10v-10zm10 0h10v10h-10v-10zm60 0h10v10h-10v-10zm10 0h10v10h-10v-10zm20 0h10v10h-10v-10z" transform="translate(-246 -1421) translate(246 1421)"/>
            </g>
        </g>
    </g>
</svg>
