<?xml version="1.0" encoding="UTF-8"?>
<svg width="24px" height="24px" viewBox="0 0 24 24" version="1.1" xmlns="http://www.w3.org/2000/svg" xmlns:xlink="http://www.w3.org/1999/xlink">
    <title>add</title>
    <g id="add" stroke="none" stroke-width="1" fill="none" fill-rule="evenodd">
        <path d="M16.9582418,24 C18.0835165,24 19.1120879,23.9098406 20.043956,23.7295217 C20.9758242,23.5492029 21.7802198,23.1203958 22.4571429,22.4431006 C23.1252747,21.7746014 23.5494505,20.9763606 23.7296703,20.0483782 C23.9098901,19.1203958 24,18.0934579 24,16.9675646 L24,7.0324354 C24,5.90654206 23.9098901,4.87960418 23.7296703,3.95162177 C23.5494505,3.02363936 23.1252747,2.22539857 22.4571429,1.5568994 C21.7802198,0.879604178 20.9758242,0.450797141 20.043956,0.270478285 C19.1120879,0.0901594283 18.0835165,0 16.9582418,0 L7.0021978,0 C5.89450549,0 4.87692308,0.0901594283 3.94945055,0.270478285 C3.02197802,0.450797141 2.21978022,0.879604178 1.54285714,1.5568994 C0.874725275,2.22539857 0.450549451,3.02144035 0.27032967,3.94502474 C0.0901098901,4.86860913 0,5.88455195 0,6.99285322 L0,16.9675646 C0,18.0934579 0.0879120879,19.1203958 0.263736264,20.0483782 C0.43956044,20.9763606 0.865934066,21.7746014 1.54285714,22.4431006 C2.21978022,23.1203958 3.02197802,23.5492029 3.94945055,23.7295217 C4.87692308,23.9098406 5.9032967,24 7.02857143,24 L16.9582418,24 Z M11.9868132,18.3529412 C11.6527473,18.3529412 11.3824176,18.2429907 11.1758242,18.0230896 C10.9692308,17.8031886 10.8659341,17.5261132 10.8659341,17.1918637 L10.8659341,13.1412864 L6.83076923,13.1412864 C6.48791209,13.1412864 6.20659341,13.0379329 5.98681319,12.8312259 C5.76703297,12.624519 5.65714286,12.3540407 5.65714286,12.0197911 C5.65714286,11.6767455 5.76703297,11.3974711 5.98681319,11.1819681 C6.20659341,10.9664651 6.48791209,10.8587136 6.83076923,10.8587136 L10.8659341,10.8587136 L10.8659341,6.8213304 C10.8659341,6.47828477 10.9692308,6.19681143 11.1758242,5.97691039 C11.3824176,5.75700935 11.6527473,5.64705882 11.9868132,5.64705882 C12.3296703,5.64705882 12.6087912,5.75700935 12.8241758,5.97691039 C13.0395604,6.19681143 13.1472527,6.47828477 13.1472527,6.8213304 L13.1472527,10.8587136 L17.1956044,10.8587136 C17.5296703,10.8587136 17.8065934,10.9664651 18.0263736,11.1819681 C18.2461538,11.3974711 18.356044,11.6767455 18.356044,12.0197911 C18.356044,12.3540407 18.2461538,12.624519 18.0263736,12.8312259 C17.8065934,13.0379329 17.5296703,13.1412864 17.1956044,13.1412864 L13.1472527,13.1412864 L13.1472527,17.1918637 C13.1472527,17.5349093 13.0395604,17.8141836 12.8241758,18.0296866 C12.6087912,18.2451897 12.3296703,18.3529412 11.9868132,18.3529412 Z" id="ô€‘" fill="#0A7AFF" fill-rule="nonzero"></path>
    </g>
</svg>