<?xml version="1.0" encoding="UTF-8"?>
<svg width="38px" height="38px" viewBox="0 0 38 38" version="1.1" xmlns="http://www.w3.org/2000/svg" xmlns:xlink="http://www.w3.org/1999/xlink">
    <title>delete</title>
    <g id="delete" stroke="none" stroke-width="1" fill="none" fill-rule="evenodd">
        <path d="M18.9375,34.875 C21.1145833,34.875 23.1640625,34.4583333 25.0859375,33.625 C27.0078125,32.7916667 28.703125,31.640625 30.171875,30.171875 C31.640625,28.703125 32.7916667,27.0078125 33.625,25.0859375 C34.4583333,23.1640625 34.875,21.1145833 34.875,18.9375 C34.875,16.7604167 34.4583333,14.7109375 33.625,12.7890625 C32.7916667,10.8671875 31.640625,9.171875 30.171875,7.703125 C28.703125,6.234375 27.0052083,5.08333333 25.078125,4.25 C23.1510417,3.41666667 21.0989583,3 18.921875,3 C16.7447917,3 14.6953125,3.41666667 12.7734375,4.25 C10.8515625,5.08333333 9.15885417,6.234375 7.6953125,7.703125 C6.23177083,9.171875 5.08333333,10.8671875 4.25,12.7890625 C3.41666667,14.7109375 3,16.7604167 3,18.9375 C3,21.1145833 3.41666667,23.1640625 4.25,25.0859375 C5.08333333,27.0078125 6.234375,28.703125 7.703125,30.171875 C9.171875,31.640625 10.8671875,32.7916667 12.7890625,33.625 C14.7109375,34.4583333 16.7604167,34.875 18.9375,34.875 Z M23.09375,28.4375 L14.765625,28.4375 C14.2135417,28.4375 13.7838542,28.2916667 13.4765625,28 C13.1692708,27.7083333 13.0052083,27.2864583 12.984375,26.734375 L12.4375,14 L11.109375,14 C10.921875,14 10.7630208,13.9348958 10.6328125,13.8046875 C10.5026042,13.6744792 10.4375,13.515625 10.4375,13.328125 C10.4375,13.1302083 10.5026042,12.9635417 10.6328125,12.828125 C10.7630208,12.6927083 10.921875,12.625 11.109375,12.625 L14.984375,12.625 L14.984375,11.328125 C14.984375,10.6614583 15.1901042,10.1302083 15.6015625,9.734375 C16.0130208,9.33854167 16.5729167,9.140625 17.28125,9.140625 L20.53125,9.140625 C21.2395833,9.140625 21.8020833,9.33854167 22.21875,9.734375 C22.6354167,10.1302083 22.84375,10.6614583 22.84375,11.328125 L22.84375,12.625 L26.6875,12.625 C26.8854167,12.625 27.0520833,12.6927083 27.1875,12.828125 C27.3229167,12.9635417 27.390625,13.1302083 27.390625,13.328125 C27.3802083,13.515625 27.3098958,13.6744792 27.1796875,13.8046875 C27.0494792,13.9348958 26.8854167,14 26.6875,14 L25.421875,14 L24.875,26.734375 C24.8541667,27.2864583 24.6848958,27.7083333 24.3671875,28 C24.0494792,28.2916667 23.625,28.4375 23.09375,28.4375 Z M21.171875,12.625 L21.171875,11.40625 C21.171875,11.1979167 21.1041667,11.03125 20.96875,10.90625 C20.8333333,10.78125 20.65625,10.71875 20.4375,10.71875 L17.359375,10.71875 C17.140625,10.71875 16.9635417,10.78125 16.828125,10.90625 C16.6927083,11.03125 16.625,11.1979167 16.625,11.40625 L16.625,12.625 L21.171875,12.625 Z M16.15625,25.9375 C16.3229167,25.9375 16.4583333,25.8854167 16.5625,25.78125 C16.6666667,25.6770833 16.7135417,25.546875 16.703125,25.390625 L16.390625,15.984375 C16.390625,15.609375 16.203125,15.421875 15.828125,15.421875 C15.421875,15.421875 15.2239583,15.609375 15.234375,15.984375 L15.5625,25.390625 C15.5625,25.7552083 15.7604167,25.9375 16.15625,25.9375 Z M18.890625,25.9375 C19.296875,25.9375 19.5,25.7552083 19.5,25.390625 L19.5,15.984375 C19.5,15.609375 19.296875,15.421875 18.890625,15.421875 C18.5052083,15.421875 18.3125,15.609375 18.3125,15.984375 L18.3125,25.390625 C18.3125,25.7552083 18.5052083,25.9375 18.890625,25.9375 Z M21.640625,25.9375 C22.0260417,25.9375 22.2239583,25.7552083 22.234375,25.390625 L22.546875,15.984375 C22.5572917,15.609375 22.3697917,15.421875 21.984375,15.421875 C21.5885417,15.421875 21.390625,15.609375 21.390625,15.984375 L21.078125,25.390625 C21.078125,25.546875 21.1276042,25.6770833 21.2265625,25.78125 C21.3255208,25.8854167 21.4635417,25.9375 21.640625,25.9375 Z" id="􀈔" fill="#000000" fill-rule="nonzero"></path>
    </g>
</svg>