<?xml version="1.0" encoding="UTF-8"?>
<svg width="38px" height="38px" viewBox="0 0 38 38" version="1.1" xmlns="http://www.w3.org/2000/svg" xmlns:xlink="http://www.w3.org/1999/xlink">
    <title>up</title>
    <g id="up" stroke="none" stroke-width="1" fill="none" fill-rule="evenodd">
        <path d="M28.859375,33.765625 C30.4947917,33.765625 31.7213542,33.3619792 32.5390625,32.5546875 C33.3567708,31.7473958 33.765625,30.5364583 33.765625,28.921875 L33.765625,9.84375 C33.765625,8.22916667 33.3567708,7.01822917 32.5390625,6.2109375 C31.7213542,5.40364583 30.4947917,5 28.859375,5 L9.90625,5 C8.27083333,5 7.04427083,5.40364583 6.2265625,6.2109375 C5.40885417,7.01822917 5,8.22916667 5,9.84375 L5,28.921875 C5,30.5364583 5.40885417,31.7473958 6.2265625,32.5546875 C7.04427083,33.3619792 8.27083333,33.765625 9.90625,33.765625 L28.859375,33.765625 Z M19.421875,27.40625 C19.0677083,27.40625 18.7760417,27.2942708 18.546875,27.0703125 C18.3177083,26.8463542 18.203125,26.5520833 18.203125,26.1875 L18.203125,18.171875 L18.328125,14.75 L16.71875,16.6875 L14.8125,18.609375 C14.7083333,18.7239583 14.5807292,18.8125 14.4296875,18.875 C14.2786458,18.9375 14.1197917,18.96875 13.953125,18.96875 C13.6197917,18.96875 13.3411458,18.8567708 13.1171875,18.6328125 C12.8932292,18.4088542 12.78125,18.1302083 12.78125,17.796875 C12.78125,17.453125 12.890625,17.171875 13.109375,16.953125 L18.484375,11.609375 C18.7864583,11.296875 19.0989583,11.140625 19.421875,11.140625 C19.7447917,11.140625 20.0572917,11.296875 20.359375,11.609375 L25.734375,16.953125 C25.953125,17.1822917 26.0625,17.4635417 26.0625,17.796875 C26.0625,18.1302083 25.9479167,18.4088542 25.71875,18.6328125 C25.4895833,18.8567708 25.2083333,18.96875 24.875,18.96875 C24.5208333,18.96875 24.234375,18.8489583 24.015625,18.609375 L22.125,16.6875 L20.5,14.734375 L20.625,18.171875 L20.625,26.1875 C20.625,26.5520833 20.5130208,26.8463542 20.2890625,27.0703125 C20.0651042,27.2942708 19.7760417,27.40625 19.421875,27.40625 Z" id="􀄇" fill="#000000" fill-rule="nonzero"></path>
    </g>
</svg>